<?xml version="1.0" encoding="UTF-8"?><svg id="a" xmlns="http://www.w3.org/2000/svg" width="136" height="136" xmlns:xlink="http://www.w3.org/1999/xlink" viewBox="0 0 136 136"><defs><linearGradient id="b" x1="74.07" y1="32.35" x2="40.72" y2="103.86" gradientTransform="translate(-24.97 .96) rotate(.25)" gradientUnits="userSpaceOnUse"><stop offset="0" stop-color="#f46837"/><stop offset=".37" stop-color="#ff9371"/><stop offset=".6" stop-color="#ffa06f"/><stop offset="1" stop-color="#ffc06c"/></linearGradient><linearGradient id="c" x1="-876.64" y1="1434.39" x2="-843.58" y2="1362.68" gradientTransform="translate(-762.26 1461.52) rotate(-179.75)" xlink:href="#b"/><linearGradient id="d" x1="119.62" y1="10.12" x2="66.91" y2="123.16" xlink:href="#b"/></defs><path d="m19.85,106.85l19.5.08c1.53,0,2.78-1.23,2.78-2.76l.31-71.85c0-2.18-2.39-3.52-4.24-2.36l-19.56,12.28c-.8.5-1.29,1.39-1.3,2.33l-.26,59.49c0,1.53,1.23,2.78,2.76,2.78Z" fill="url(#b)"/><path d="m116.15,29.15l-19.5-.08c-1.53,0-2.78,1.23-2.78,2.76l-.31,71.85c0,2.18,2.39,3.52,4.24,2.36l19.56-12.28c.8-.5,1.29-1.39,1.3-2.33l.26-59.49c0-1.53-1.23-2.78-2.76-2.78Z" fill="url(#c)"/><path d="m55.22,19.31c-.81.51-1.3,1.39-1.3,2.34v106.91c0,2.18,2.4,3.5,4.25,2.34l22.6-14.19c.81-.51,1.3-1.39,1.3-2.35V7.44c0-2.18-2.4-3.51-4.24-2.35l-22.61,14.21Z" fill="url(#d)"/></svg>