<svg  width="48" height="48" fill="white" viewBox="3 -37 185 185" xmlns="http://www.w3.org/2000/svg">
    <path d="M121.3,35.3l-60.1,20c-5.7,1.9-8.8,8.1-6.9,13.8l0,0c1.9,5.7,8.1,8.8,13.8,6.9l60.1-20c5.7-1.9,8.8-8.1,6.9-13.8l0,0
            C133.2,36.5,127,33.4,121.3,35.3z" />
    <path d="M121.3,0.6l-60.1,20c-5.7,1.9-8.8,8.1-6.9,13.8l0,0c1.9,5.7,8.1,8.8,13.8,6.9l60.1-20c5.7-1.9,8.8-8.1,6.9-13.8l0,0
            C133.2,1.8,127-1.3,121.3,0.6z" />
    <path d="M121.3,70L61.1,90c-5.7,1.9-8.8,8.1-6.9,13.8l0,0c1.9,5.7,8.1,8.8,13.8,6.9l60.1-20c5.7-1.9,8.8-8.1,6.9-13.8l0,0
            C133.2,71.2,127,68.1,121.3,70z" />
</svg>