<svg width="48" height="48" viewBox="0 0 182 26" fill="white" xmlns="http://www.w3.org/2000/svg">
<g clip-path="url(#clip0_1035_992)">
<path d="M17.7969 2.51855H13.371L3.0475 13.5654L2.62262 13.1405C2.86288 12.5943 3.02726 11.9392 3.11325 11.1729C3.222 10.3864 3.27764 9.31662 3.27764 7.96105V2.51855H0V25.462H3.27764V17.445L6.35801 14.3039L15.1439 25.462H19.4382L8.60886 11.9822L17.7969 2.51855Z"/>
<path d="M21.3907 7.72168V25.4629H37.6146V22.4483H24.6684V15.0736H34.2383V12.0919H24.6684V5.53659H37.6146V2.52197H26.593C23.72 2.52197 21.3907 4.85122 21.3907 7.72421V7.72168Z"/>
<path d="M50.9069 9.17335C50.6894 9.58812 50.482 9.98265 50.2847 10.3544C50.1102 10.7262 49.9559 11.0853 49.827 11.4368C49.6955 11.7656 49.5766 12.0818 49.4653 12.3878C49.354 12.6938 49.268 12.977 49.2023 13.2401H48.613C48.4815 12.6508 48.2741 12.0261 47.9909 11.3711C47.7076 10.7161 47.3359 9.99529 46.8756 9.20876L42.8443 2.52197H38.9116L47.2372 15.8627V25.4654H50.5149V15.7312L58.5775 2.52197H54.6777L50.9094 9.17588L50.9069 9.17335Z"/>
<path d="M63.3754 5.53659H76.7819V2.52197H65.3C62.427 2.52197 60.0978 4.85122 60.0978 7.72421V25.4654H63.3754V15.7969H73.9291V12.8152H63.3754V5.53912V5.53659Z"/>
<path d="M83.5594 2.51855L74.9404 25.462H78.4811L80.6485 19.3974H90.7267L92.8688 25.462H96.541L88.0839 2.51855H83.5619H83.5594ZM81.7258 16.3828L83.9539 10.1563C84.1512 9.63275 84.3257 9.13959 84.4774 8.68183C84.6317 8.20131 84.7733 7.75367 84.9023 7.33891C85.0111 6.92415 85.1097 6.52962 85.1982 6.15785C85.2867 5.78608 85.3626 5.41431 85.4284 5.04254H86.0176C86.0606 5.39155 86.1163 5.74055 86.182 6.09209C86.2705 6.42087 86.3666 6.75976 86.4779 7.10877C86.6094 7.54629 86.7511 8.01669 86.9028 8.51744C87.0545 9.02072 87.2417 9.567 87.4592 10.1563L89.6595 16.3828H81.7258Z"/>
<path d="M112.251 21.5297C111.202 22.4705 109.684 22.9384 107.697 22.9384C106.166 22.9384 104.813 22.5565 103.632 21.7902C102.474 21.0037 101.569 19.9212 100.911 18.5454C100.276 17.1469 99.9602 15.551 99.9602 13.7605C99.9602 11.9699 100.276 10.4171 100.911 9.10703C101.566 7.79699 102.474 6.79043 103.632 6.09242C104.813 5.3944 106.166 5.04286 107.697 5.04286C109.052 5.04286 110.198 5.30588 111.139 5.8294C112.079 6.33267 112.8 6.95482 113.301 7.69836C113.824 8.4419 114.219 9.21578 114.479 10.0251L117.757 8.84401C117.408 7.68571 116.806 6.59317 115.954 5.56638C115.102 4.53958 113.976 3.69741 112.578 3.04239C111.179 2.38737 109.55 2.05859 107.694 2.05859C105.509 2.05859 103.564 2.57199 101.859 3.59878C100.155 4.60281 98.8221 6.00137 97.8611 7.79446C96.9203 9.58502 96.4524 11.5855 96.4524 13.7934C96.4524 16.0012 96.8899 18.1205 97.7624 19.9541C98.6577 21.7902 99.9576 23.2419 101.662 24.3142C103.367 25.384 105.377 25.9201 107.694 25.9201C109.507 25.9201 111.103 25.6141 112.479 25.0021C113.855 24.3673 114.98 23.5276 115.855 22.4781C116.75 21.4285 117.395 20.25 117.79 18.9374L114.578 17.6931C114.075 19.289 113.301 20.5661 112.251 21.5272V21.5297Z"/>
<path d="M118.324 5.5357H126.452V25.462H129.73V5.5357H138.088V2.51855H118.324V5.5357Z"/>
<path d="M156.148 3.56883C154.421 2.5648 152.466 2.06152 150.281 2.06152C148.096 2.06152 146.131 2.5648 144.381 3.56883C142.633 4.57286 141.255 5.98407 140.251 7.79739C139.247 9.58795 138.743 11.6542 138.743 13.991C138.743 16.3279 139.234 18.4042 140.218 20.2175C141.222 22.0308 142.6 23.4395 144.348 24.4461C146.118 25.4299 148.096 25.9205 150.281 25.9205C152.466 25.9205 154.421 25.4299 156.148 24.4461C157.896 23.442 159.261 22.0308 160.245 20.2175C161.229 18.4042 161.72 16.3279 161.72 13.991C161.72 11.6542 161.229 9.58795 160.245 7.79739C159.261 5.98407 157.896 4.57539 156.148 3.56883ZM157.263 18.5812C156.629 19.9368 155.713 21.0066 154.509 21.7931C153.308 22.5569 151.887 22.9413 150.248 22.9413C148.609 22.9413 147.188 22.5594 145.986 21.7931C144.785 21.0066 143.857 19.9368 143.199 18.5812C142.565 17.2257 142.249 15.6981 142.249 13.9935C142.249 12.289 142.565 10.7589 143.199 9.40586C143.854 8.0503 144.783 6.99063 145.986 6.22686C147.188 5.44032 148.609 5.04579 150.248 5.04579C151.887 5.04579 153.306 5.44032 154.509 6.22686C155.711 6.99063 156.629 8.0503 157.263 9.40586C157.918 10.7614 158.247 12.289 158.247 13.9935C158.247 15.6981 157.918 17.2282 157.263 18.5812Z"/>
<path d="M180.854 19.6942C180.657 18.6901 180.374 17.8707 180.002 17.2359C179.63 16.6012 179.117 16.1105 178.462 15.7615C177.827 15.3897 176.975 15.1596 175.905 15.0736V14.4843C176.954 14.3528 177.905 14.0696 178.758 13.6321C179.61 13.1743 180.288 12.5395 180.788 11.7302C181.312 10.9209 181.575 9.92701 181.575 8.74847C181.575 7.56994 181.279 6.50774 180.69 5.56947C180.121 4.62866 179.281 3.88766 178.166 3.34138C177.051 2.79511 175.718 2.52197 174.167 2.52197H164.367V25.4654H167.645V15.9942H172.397C173.447 15.9942 174.309 16.1257 174.987 16.3887C175.685 16.6517 176.231 17.0766 176.626 17.6659C177.04 18.2349 177.336 19.0088 177.511 19.9926L178.429 25.4654H182.002L180.854 19.6967V19.6942ZM173.677 13.0403H167.645V5.53406H173.677C175.032 5.53406 176.112 5.85019 176.922 6.48498C177.731 7.09701 178.136 8.02517 178.136 9.27199C178.136 10.5188 177.721 11.4571 176.889 12.0919C176.079 12.7267 175.01 13.0428 173.677 13.0428V13.0403Z"/>
<path d="M51.82 0H45.7731L48.7953 5.01003L51.82 0Z"/>
</g>
<defs>
<clipPath id="clip0_1035_992">
<rect width="182" height="25.9227" fill="white"/>
</clipPath>
</defs>
</svg>
