<svg class="Logo_root__WF7Fv SiteHeader_logo__AfZ1C" role="img" fill="black" aria-label="Quickbit"
    xmlns="http://www.w3.org/2000/svg" xmlns:xlink="http://www.w3.org/1999/xlink"
    width="48px"
    height="48px"
    viewBox="0 0 82 20">
    <g clip-path="url(#clip0_53_16666)">
        <path
            d="M21.4797 10.8564C21.4797 12.381 20.3078 13.5279 18.9845 13.5279C17.8126 13.5279 17.0534 12.8815 17.0534 11.5892V4.35925H13.8641V11.7829C13.8641 14.4327 15.4899 15.8654 18.0409 15.8654C20.0908 15.8654 21.0132 14.5907 21.3928 13.9982H21.6098V15.6394H24.669V4.36066H21.4797V10.8564Z"></path>
        <path d="M29.9088 4.36066H26.7089V15.6401H29.9088V4.36066Z"></path>
        <path d="M29.9096 0.126587H26.6984V2.79815H29.9096V0.126587Z"></path>
        <path
            d="M55.3199 4.68355V4.36066H51.8372L47.4222 8.57297H47.2052V0.126587H44.0485V15.6394H47.2052V12.3108L48.4309 11.1582L51.9567 15.6394H55.3743V15.3165L50.449 9.26227L55.3199 4.68355Z"></path>
        <path d="M73.2294 0.126587H70.0182V2.79815H73.2294V0.126587Z"></path>
        <path d="M73.2287 4.36066H70.0288V15.6401H73.2287V4.36066Z"></path>
        <path
            d="M81.9999 6.47209V4.36067H79.6454V1.37604H76.4887V4.36067H74.4275V6.47209H76.4887V12.6554C76.4887 14.5949 77.6903 15.6394 79.678 15.6394H81.9455V13.4205H80.524C79.9494 13.4205 79.6454 13.1082 79.6454 12.5586V6.47209H81.9999Z"></path>
        <path
            d="M8.91606 6.00179H8.69906C8.19296 5.08436 6.87822 4.14517 5.25247 4.14517C2.42508 4.14517 0.00341797 6.00881 0.00341797 10.0056C0.00341797 14.0025 2.41801 15.8654 5.25247 15.8654C6.85631 15.8654 8.06996 14.9571 8.56122 14.1807H8.77823V19.9478H11.9788V4.36067H8.91606V6.00179ZM6.10634 13.5174C4.41415 13.5174 3.12981 12.3241 3.12981 10.0077C3.12981 7.69135 4.41415 6.48472 6.10634 6.48472C7.65717 6.48472 8.91606 7.69135 8.91606 10.0077C8.91606 12.3241 7.63313 13.5174 6.10634 13.5174Z"></path>
        <path
            d="M63.2282 4.13394C61.6244 4.13394 60.4107 5.04295 59.9195 5.81858H59.7025V0.0514832H56.5026V15.6394H59.5618V13.9989H59.7788C60.2849 14.9178 61.5996 15.8556 63.2282 15.8556C66.0598 15.8556 68.478 13.9919 68.478 9.9951C68.478 5.99828 66.0598 4.13464 63.2282 4.13464V4.13394ZM62.3715 13.5181C60.82 13.5181 59.5618 12.3115 59.5618 9.9951C59.5618 7.67871 60.844 6.48542 62.3715 6.48542C64.0637 6.48542 65.3473 7.67871 65.3473 9.9951C65.3473 12.3115 64.0637 13.5181 62.3715 13.5181Z"></path>
        <path
            d="M37.3278 13.5925C35.6251 13.5925 34.5945 12.289 34.5945 10.0049C34.5945 7.72083 35.6251 6.41804 37.3278 6.41804C38.8575 6.41804 39.4647 7.38741 39.5622 8.41083H42.5458V8.08794C42.362 5.99688 40.5716 4.10165 37.284 4.10165C33.824 4.10165 31.3719 6.13727 31.3719 10.0049C31.3719 13.8726 33.824 15.9012 37.284 15.9012C40.6147 15.9012 42.3733 14.0263 42.6214 11.764V11.4411H39.6385C39.4866 12.5291 38.9225 13.5953 37.3278 13.5953"></path>
    </g>
</svg>